<mxfile host="app.diagrams.net" modified="2023-03-28T07:39:30.052Z" agent="Mozilla/5.0 (Windows NT 10.0; Win64; x64; rv:109.0) Gecko/20100101 Firefox/111.0" etag="yyrjaRXeqs6vECVhogRr" version="21.1.1" type="device">
  <diagram id="6a731a19-8d31-9384-78a2-239565b7b9f0" name="Page-1">
    <mxGraphModel dx="750" dy="747" grid="1" gridSize="10" guides="1" tooltips="1" connect="1" arrows="1" fold="1" page="1" pageScale="1" pageWidth="1169" pageHeight="827" background="#979797" math="0" shadow="0">
      <root>
        <mxCell id="0" />
        <mxCell id="1" parent="0" />
        <mxCell id="2" value="start" style="shape=mxgraph.flowchart.terminator;strokeWidth=1;gradientColor=none;gradientDirection=north;fontStyle=0;html=1;fillColor=#454747;fontColor=#FFFFFF;strokeColor=#1F2020;" parent="1" vertex="1">
          <mxGeometry x="279.5" y="60" width="120" height="30" as="geometry" />
        </mxCell>
        <mxCell id="7" style="fontStyle=1;strokeColor=#003366;strokeWidth=1;html=1;entryX=0.5;entryY=0;entryDx=0;entryDy=0;" parent="1" source="2" target="mH0r4JVqe8PF6rk-SjkP-55" edge="1">
          <mxGeometry relative="1" as="geometry">
            <mxPoint x="320" y="130" as="targetPoint" />
          </mxGeometry>
        </mxCell>
        <mxCell id="mH0r4JVqe8PF6rk-SjkP-77" style="edgeStyle=orthogonalEdgeStyle;rounded=0;orthogonalLoop=1;jettySize=auto;html=1;exitX=1;exitY=0.5;exitDx=0;exitDy=0;exitPerimeter=0;" parent="1" source="mH0r4JVqe8PF6rk-SjkP-76" target="mH0r4JVqe8PF6rk-SjkP-58" edge="1">
          <mxGeometry relative="1" as="geometry">
            <mxPoint x="550" y="630" as="targetPoint" />
            <Array as="points">
              <mxPoint x="500" y="317" />
              <mxPoint x="500" y="590" />
              <mxPoint x="340" y="590" />
            </Array>
          </mxGeometry>
        </mxCell>
        <mxCell id="27" value="yes" style="text;fontStyle=0;html=1;strokeColor=none;gradientColor=none;fillColor=none;strokeWidth=2;" parent="1" vertex="1">
          <mxGeometry x="399.5" y="290" width="40" height="26" as="geometry" />
        </mxCell>
        <mxCell id="46" value="no" style="text;fontStyle=0;html=1;strokeColor=none;gradientColor=none;fillColor=none;strokeWidth=2;" parent="1" vertex="1">
          <mxGeometry x="345" y="356" width="40" height="26" as="geometry" />
        </mxCell>
        <mxCell id="mH0r4JVqe8PF6rk-SjkP-82" style="edgeStyle=orthogonalEdgeStyle;rounded=0;orthogonalLoop=1;jettySize=auto;html=1;exitX=0.5;exitY=1;exitDx=0;exitDy=0;entryX=0.5;entryY=0;entryDx=0;entryDy=0;" parent="1" source="mH0r4JVqe8PF6rk-SjkP-55" target="mH0r4JVqe8PF6rk-SjkP-81" edge="1">
          <mxGeometry relative="1" as="geometry" />
        </mxCell>
        <mxCell id="mH0r4JVqe8PF6rk-SjkP-55" value="&lt;div style=&quot;font-size: 14px;&quot;&gt;pyxel.init()&lt;/div&gt;&lt;div style=&quot;font-size: 14px;&quot;&gt;pyxel.load()&lt;/div&gt;" style="rounded=1;whiteSpace=wrap;html=1;absoluteArcSize=1;arcSize=14;strokeWidth=1;fontSize=14;fontColor=#FFFFFF;fillColor=#454747;strokeColor=#1F2020;" parent="1" vertex="1">
          <mxGeometry x="259.5" y="130" width="160" height="40" as="geometry" />
        </mxCell>
        <mxCell id="mH0r4JVqe8PF6rk-SjkP-58" value="end" style="shape=mxgraph.flowchart.terminator;strokeWidth=1;gradientColor=none;gradientDirection=north;fontStyle=0;html=1;fillColor=#454747;strokeColor=#1F2020;fontColor=#FFFFFF;" parent="1" vertex="1">
          <mxGeometry x="279.5" y="620" width="120" height="30" as="geometry" />
        </mxCell>
        <mxCell id="mH0r4JVqe8PF6rk-SjkP-79" style="edgeStyle=orthogonalEdgeStyle;rounded=0;orthogonalLoop=1;jettySize=auto;html=1;exitX=0.5;exitY=1;exitDx=0;exitDy=0;" parent="1" source="mH0r4JVqe8PF6rk-SjkP-61" target="mH0r4JVqe8PF6rk-SjkP-62" edge="1">
          <mxGeometry relative="1" as="geometry" />
        </mxCell>
        <mxCell id="mH0r4JVqe8PF6rk-SjkP-61" value="update()" style="rounded=1;whiteSpace=wrap;html=1;absoluteArcSize=1;arcSize=14;strokeWidth=1;fontSize=14;fillColor=#454747;strokeColor=#1F2020;fontColor=#FFFFFF;" parent="1" vertex="1">
          <mxGeometry x="259.5" y="400" width="160" height="40" as="geometry" />
        </mxCell>
        <mxCell id="mH0r4JVqe8PF6rk-SjkP-84" style="edgeStyle=orthogonalEdgeStyle;rounded=0;orthogonalLoop=1;jettySize=auto;html=1;exitX=0.5;exitY=1;exitDx=0;exitDy=0;" parent="1" source="mH0r4JVqe8PF6rk-SjkP-62" edge="1">
          <mxGeometry relative="1" as="geometry">
            <mxPoint x="339" y="260" as="targetPoint" />
            <Array as="points">
              <mxPoint x="339" y="550" />
              <mxPoint x="190" y="550" />
              <mxPoint x="190" y="260" />
            </Array>
          </mxGeometry>
        </mxCell>
        <mxCell id="mH0r4JVqe8PF6rk-SjkP-62" value="draw()" style="rounded=1;whiteSpace=wrap;html=1;absoluteArcSize=1;arcSize=14;strokeWidth=1;fontSize=14;fillColor=#454747;strokeColor=#1F2020;fontColor=#FFFFFF;" parent="1" vertex="1">
          <mxGeometry x="259" y="470" width="160" height="40" as="geometry" />
        </mxCell>
        <mxCell id="mH0r4JVqe8PF6rk-SjkP-78" style="edgeStyle=orthogonalEdgeStyle;rounded=0;orthogonalLoop=1;jettySize=auto;html=1;exitX=0.5;exitY=1;exitDx=0;exitDy=0;exitPerimeter=0;entryX=0.5;entryY=0;entryDx=0;entryDy=0;" parent="1" source="mH0r4JVqe8PF6rk-SjkP-76" target="mH0r4JVqe8PF6rk-SjkP-61" edge="1">
          <mxGeometry relative="1" as="geometry" />
        </mxCell>
        <mxCell id="mH0r4JVqe8PF6rk-SjkP-76" value="&lt;div&gt;Is [Esc] key&lt;/div&gt;&lt;div&gt;pressed?&lt;/div&gt;" style="shape=mxgraph.flowchart.decision;strokeWidth=1;gradientColor=none;gradientDirection=north;fontStyle=0;html=1;fontSize=14;fillColor=#454747;strokeColor=#1F2020;fontColor=#FFFFFF;rounded=1;arcSize=14;" parent="1" vertex="1">
          <mxGeometry x="279.5" y="277.5" width="119" height="78.5" as="geometry" />
        </mxCell>
        <mxCell id="mH0r4JVqe8PF6rk-SjkP-83" style="edgeStyle=orthogonalEdgeStyle;rounded=0;orthogonalLoop=1;jettySize=auto;html=1;exitX=0.5;exitY=1;exitDx=0;exitDy=0;entryX=0.5;entryY=0;entryDx=0;entryDy=0;entryPerimeter=0;" parent="1" source="mH0r4JVqe8PF6rk-SjkP-81" target="mH0r4JVqe8PF6rk-SjkP-76" edge="1">
          <mxGeometry relative="1" as="geometry" />
        </mxCell>
        <mxCell id="mH0r4JVqe8PF6rk-SjkP-81" value="&lt;div style=&quot;font-size: 12px;&quot;&gt;pyxel.run()&lt;/div&gt;" style="rounded=1;whiteSpace=wrap;html=1;absoluteArcSize=1;arcSize=14;strokeWidth=1;fontSize=14;fillColor=#454747;strokeColor=#1F2020;fontColor=#FFFFFF;" parent="1" vertex="1">
          <mxGeometry x="259.5" y="200" width="160" height="40" as="geometry" />
        </mxCell>
        <mxCell id="mH0r4JVqe8PF6rk-SjkP-87" style="edgeStyle=none;rounded=0;orthogonalLoop=1;jettySize=auto;html=1;exitX=0;exitY=0.5;exitDx=0;exitDy=0;exitPerimeter=0;entryX=1;entryY=0.5;entryDx=0;entryDy=0;endArrow=none;endFill=0;dashed=1;" parent="1" source="mH0r4JVqe8PF6rk-SjkP-85" target="mH0r4JVqe8PF6rk-SjkP-55" edge="1">
          <mxGeometry relative="1" as="geometry" />
        </mxCell>
        <mxCell id="mH0r4JVqe8PF6rk-SjkP-85" value="&lt;div&gt;画面サイズを指定する&lt;/div&gt;&lt;div&gt;リソースファイルを読み込む&lt;br&gt;&lt;/div&gt;" style="shape=note2;boundedLbl=1;whiteSpace=wrap;html=1;size=11;verticalAlign=top;align=left;spacingLeft=9;fillColor=#BDBDBD;" parent="1" vertex="1">
          <mxGeometry x="460" y="110" width="200" height="60" as="geometry" />
        </mxCell>
        <mxCell id="mH0r4JVqe8PF6rk-SjkP-91" style="edgeStyle=none;rounded=0;orthogonalLoop=1;jettySize=auto;html=1;exitX=0;exitY=0.5;exitDx=0;exitDy=0;exitPerimeter=0;entryX=1;entryY=0.5;entryDx=0;entryDy=0;endArrow=none;endFill=0;dashed=1;" parent="1" source="mH0r4JVqe8PF6rk-SjkP-89" target="mH0r4JVqe8PF6rk-SjkP-61" edge="1">
          <mxGeometry relative="1" as="geometry" />
        </mxCell>
        <mxCell id="mH0r4JVqe8PF6rk-SjkP-89" value="&lt;div&gt;ユーザー操作判定&lt;/div&gt;&lt;div&gt;キャラクターの位置を更新する&lt;br&gt;&lt;/div&gt;" style="shape=note2;boundedLbl=1;whiteSpace=wrap;html=1;size=11;verticalAlign=top;align=left;spacingLeft=9;fillColor=#BDBDBD;" parent="1" vertex="1">
          <mxGeometry x="530" y="354" width="200" height="60" as="geometry" />
        </mxCell>
        <mxCell id="mH0r4JVqe8PF6rk-SjkP-92" style="edgeStyle=none;rounded=0;orthogonalLoop=1;jettySize=auto;html=1;exitX=0;exitY=0.5;exitDx=0;exitDy=0;exitPerimeter=0;entryX=1;entryY=0.5;entryDx=0;entryDy=0;endArrow=none;endFill=0;dashed=1;" parent="1" source="mH0r4JVqe8PF6rk-SjkP-90" target="mH0r4JVqe8PF6rk-SjkP-62" edge="1">
          <mxGeometry relative="1" as="geometry" />
        </mxCell>
        <mxCell id="mH0r4JVqe8PF6rk-SjkP-90" value="&lt;div&gt;画面を描画する&lt;br&gt;&lt;/div&gt;&lt;div&gt;&lt;font style=&quot;font-size: 11px;&quot;&gt;（指定位置にキャラクターを表示）&lt;/font&gt;&lt;br&gt;&lt;/div&gt;" style="shape=note2;boundedLbl=1;whiteSpace=wrap;html=1;size=11;verticalAlign=top;align=left;spacingLeft=9;fillColor=#BDBDBD;" parent="1" vertex="1">
          <mxGeometry x="530" y="440" width="200" height="60" as="geometry" />
        </mxCell>
      </root>
    </mxGraphModel>
  </diagram>
</mxfile>
